<svg xmlns="http://www.w3.org/2000/svg" width="64" height="64" viewBox="0 0 64 64">
<path d="M 27 30 L 27 30 L 27 30 L 27 30 z M 27 38 C 29 40 30 42 30 45 c 0 7 -5 12 -12 12 s -12 -5 -12 -12 s 5 -12 12 -12 h 4 l 2 -2 l -2 -2 H 18 c -7 0 -12 -5 -12 -12 s 5 -12 12 -12 s 12 5 12 12 c 0 3 -1 5 -3 8 l 2 2 l 16 -12 c 8 -5 11 0 11 0 L 27 38 z M 28 32 c 0 1 1 2 2 2 s 2 -1 2 -2 c 0 -1 -1 -2 -2 -2 S 28 31 28 32 z M 25 45 c 0 -4 -3 -7 -7 -7 s -7 3 -7 7 c 0 4 3 7 7 7 S 25 49 25 45 z M 25 17 c 0 -4 -3 -7 -7 -7 s -7 3 -7 7 c 0 4 3 7 7 7 S 25 22 25 17 z M 31 37 l 15 11 c 8 5 11 0 11 0 l -20 -15 L 31 37 z" />
</svg>