<svg version="1.1" xmlns="http://www.w3.org/2000/svg" viewBox="0 0 120 120" fill="white" width="64" height="64">
<path d="M 95 107 H 25 C 17 107 11 101 11 93 V 75 C 11 73 13 71 15 71 H 22 C 23 71 25 73 25 75 V 86 C 25 90 28 93 32 93 H 88 C 92 93 95 90 95 86 V 75 C 95 73 97 71 99 71 H 106 C 107 71 109 73 109 75 V 93 C 109 101 103 107 95 107 L 95 107 Z M 88 55 C 87 56 85 56 83 55 L 67 38 V 75 C 67 77 65 78 64 78 H 57 C 55 78 53 77 53 75 V 38 L 37 55 C 35 56 33 56 32 55 L 26 50 C 25 48 25 46 26 44 L 55 14 C 55 14 57 12 60 12 C 63 12 65 14 65 14 L 94 44 C 95 46 95 48 94 50 L 88 55 L 88 55 Z"/>
</svg>